<svg xmlns="http://www.w3.org/2000/svg" width="1600" height="900" viewBox="0 0 1600 900"><rect width="1600" height="900" fill="#fff"/>
<style>
  .title{font-family:"Microsoft YaHei","Noto Sans CJK SC",Arial,sans-serif;font-size:38px;font-weight:700;fill:#083258}
  .label{font-family:"Microsoft YaHei","Noto Sans CJK SC",Arial,sans-serif;font-size:24px;font-weight:700;fill:#083258}
  .small{font-family:"Microsoft YaHei","Noto Sans CJK SC",Arial,sans-serif;font-size:20px;font-weight:600;fill:#18283c}
  .tiny{font-family:"Microsoft YaHei","Noto Sans CJK SC",Arial,sans-serif;font-size:17px;font-weight:600;fill:#18283c}
  .blue{fill:#e8f1f9;stroke:#5b9bd5;stroke-width:2.4}
  .red{fill:#fcecee;stroke:#c95b68;stroke-width:2.4}
  .gold{fill:#fff4cf;stroke:#d7a619;stroke-width:2.4}
  .green{fill:#e8f4df;stroke:#84b96b;stroke-width:2.4}
  .gray{fill:#f5f8fc;stroke:#cdd8e5;stroke-width:2.4}
  .line{stroke:#2a6096;stroke-width:4;fill:none;marker-end:url(#arrow)}
  .dash{stroke:#91a4bb;stroke-width:2.5;fill:none;stroke-dasharray:9 7}
</style>
<defs><marker id="arrow" markerWidth="14" markerHeight="14" refX="11" refY="7" orient="auto"><path d="M2,2 L12,7 L2,12 Z" fill="#2a6096"/></marker></defs>
<text x="55" y="70" text-anchor="start" class="title">测试验证工具链：从实验配置到可解释结果</text><rect x="85" y="165" width="205" height="90" rx="14" class="blue"/><text x="187.5" y="195.5" text-anchor="middle" dominant-baseline="middle" class="small">Config</text><text x="187.5" y="224.5" text-anchor="middle" dominant-baseline="middle" class="small">模型 / 负载 / 开关</text><path d="M290,210 L358,210" class="line"/><rect x="370" y="165" width="205" height="90" rx="14" class="blue"/><text x="472.5" y="195.5" text-anchor="middle" dominant-baseline="middle" class="small">Serve</text><text x="472.5" y="224.5" text-anchor="middle" dominant-baseline="middle" class="small">vLLM API 服务</text><path d="M575,210 L643,210" class="line"/><rect x="655" y="165" width="205" height="90" rx="14" class="gold"/><text x="757.5" y="195.5" text-anchor="middle" dominant-baseline="middle" class="small">Run</text><text x="757.5" y="224.5" text-anchor="middle" dominant-baseline="middle" class="small">批量请求</text><path d="M860,210 L928,210" class="line"/><rect x="940" y="165" width="205" height="90" rx="14" class="red"/><text x="1042.5" y="195.5" text-anchor="middle" dominant-baseline="middle" class="small">Collect</text><text x="1042.5" y="224.5" text-anchor="middle" dominant-baseline="middle" class="small">metrics / raw / log</text><path d="M1145,210 L1213,210" class="line"/><rect x="1225" y="165" width="205" height="90" rx="14" class="green"/><text x="1327.5" y="195.5" text-anchor="middle" dominant-baseline="middle" class="small">Summarize</text><text x="1327.5" y="224.5" text-anchor="middle" dominant-baseline="middle" class="small">表格与图形</text><rect x="110" y="335" width="1380" height="285" rx="24" class="gray"/><text x="800" y="382" text-anchor="middle" class="label">三条评测线统一到同一套输出格式</text><rect x="165" y="440" width="390" height="110" rx="18" class="green"/><text x="360.0" y="467.0" text-anchor="middle" dominant-baseline="middle" class="small">基础性能</text><text x="360.0" y="495.0" text-anchor="middle" dominant-baseline="middle" class="small">TTFT / TPOT / latency</text><text x="360.0" y="523.0" text-anchor="middle" dominant-baseline="middle" class="small">throughput / GPU memory</text><rect x="605" y="440" width="390" height="110" rx="18" class="gold"/><text x="800.0" y="467.0" text-anchor="middle" dominant-baseline="middle" class="small">复用收益</text><text x="800.0" y="495.0" text-anchor="middle" dominant-baseline="middle" class="small">prefix hit / saved prefill</text><text x="800.0" y="523.0" text-anchor="middle" dominant-baseline="middle" class="small">lookup overhead</text><rect x="1045" y="440" width="390" height="110" rx="18" class="red"/><text x="1240.0" y="467.0" text-anchor="middle" dominant-baseline="middle" class="small">质量检查</text><text x="1240.0" y="495.0" text-anchor="middle" dominant-baseline="middle" class="small">准确率 / 一致性</text><text x="1240.0" y="523.0" text-anchor="middle" dominant-baseline="middle" class="small">质量下降边界</text><rect x="230" y="695" width="1140" height="105" rx="18" class="gold"/><text x="800.0" y="732.5" text-anchor="middle" dominant-baseline="middle" class="small">当前阶段已用 Qwen3.5-2B 验证 prefix caching 可开启</text><text x="800.0" y="762.5" text-anchor="middle" dominant-baseline="middle" class="small">结果目录包含 env / config / raw_outputs / metrics / summary</text></svg>